<svg xmlns="http://www.w3.org/2000/svg"><symbol id="arrow" viewBox="0 0 14 10"><path d="M6.89.5l6.89 9H0l6.89-9z"/></symbol><symbol id="check-icon" viewBox="0 0 16 16"><path fill-rule="evenodd" d="M14.04 3.293a1 1 0 0 1 0 1.414L6.707 12.04a1 1 0 0 1-1.414 0L1.96 8.707a1 1 0 0 1 1.414-1.414L6 9.919l6.626-6.626a1 1 0 0 1 1.415 0z" clip-rule="evenodd"/></symbol><symbol id="chevron-up-icon" viewBox="0 0 20 20"><path fill-rule="evenodd" d="M9.293 6.793a1 1 0 0 1 1.414 0l5 5a1 1 0 0 1-1.414 1.414L10 8.914l-4.293 4.293a1 1 0 0 1-1.414-1.414l5-5z" clip-rule="evenodd"/></symbol><symbol id="circle-lefthalf-filled-icon" viewBox="0 0 20 20"><path d="M10.08 19.158c4.965 0 9.078-4.104 9.078-9.079C19.158 5.113 15.045 1 10.08 1 5.104 1 1 5.113 1 10.08c0 4.974 4.113 9.078 9.08 9.078zm0-1.784V2.793a7.28 7.28 0 0 1 7.294 7.286 7.277 7.277 0 0 1-7.295 7.295z"/></symbol><symbol id="check-circle-filled-icon" viewBox="0 0 16 16"><path fill-rule="evenodd" d="M16 8A8 8 0 1 1-.001 8 8 8 0 0 1 16 8zm-4.72-1.22a.75.75 0 0 0-1.06-1.06L7.25 8.69 5.78 7.22a.75.75 0 0 0-1.06 1.06l2 2a.75.75 0 0 0 1.06 0l3.5-3.5z" clip-rule="evenodd"/></symbol><symbol id="smiley-icon" viewBox="0 0 16 16"><path fill-rule="evenodd" d="M1.5 8a6.5 6.5 0 1 1 13 0 6.5 6.5 0 0 1-13 0zM8 0a8 8 0 1 0 0 16A8 8 0 0 0 8 0zM5 8a1 1 0 1 0 0-2 1 1 0 0 0 0 2zm7-1a1 1 0 1 1-2 0 1 1 0 0 1 2 0zM5.32 9.636a.75.75 0 0 1 1.038.175l.007.009c.103.118.22.222.35.31.264.178.683.37 1.285.37.602 0 1.02-.192 1.285-.371.13-.088.247-.192.35-.31l.007-.008a.75.75 0 1 1 1.222.87l-.614-.431c.614.43.614.431.613.431v.001l-.001.002-.002.003-.005.007-.014.019a1.984 1.984 0 0 1-.184.213c-.16.166-.338.316-.53.445-.63.418-1.37.638-2.127.629-.946 0-1.652-.308-2.126-.63a3.32 3.32 0 0 1-.715-.657l-.014-.02-.005-.006-.002-.003v-.002h-.001l.613-.432-.614.43a.75.75 0 0 1 .183-1.044h.001z" clip-rule="evenodd"/></symbol><symbol id="pencil-icon" viewBox="0 0 16 16"><path fill-rule="evenodd" d="M11.013 1.427a1.75 1.75 0 0 1 2.474 0l1.086 1.086a1.75 1.75 0 0 1 0 2.474l-8.61 8.61c-.21.21-.47.364-.756.445l-3.25.93a.75.75 0 0 1-.928-.928l.929-3.25a1.75 1.75 0 0 1 .445-.758l8.61-8.61zm1.414 1.06a.25.25 0 0 0-.354 0L10.811 3.75l1.439 1.44 1.263-1.263a.25.25 0 0 0 0-.354l-1.086-1.086zM11.189 6.25L9.75 4.81l-6.286 6.287a.25.25 0 0 0-.064.108l-.558 1.953 1.953-.558a.249.249 0 0 0 .108-.064l6.286-6.286z" clip-rule="evenodd"/></symbol><symbol id="globe-icon" viewBox="0 0 20 20"><path fill-rule="evenodd" d="M7.723 3.027A7.342 7.342 0 0 0 2.734 9h2.988a13.75 13.75 0 0 1 2.001-5.973zm4.553 0A13.75 13.75 0 0 1 14.278 9h2.988a7.342 7.342 0 0 0-4.99-5.973zM12.268 9A11.75 11.75 0 0 0 10 3.234 11.75 11.75 0 0 0 7.732 9h4.536zm-4.536 2h4.536A11.75 11.75 0 0 1 10 16.766 11.75 11.75 0 0 1 7.732 11zm-2.01 0H2.734a7.342 7.342 0 0 0 4.99 5.973A13.75 13.75 0 0 1 5.721 11zm6.554 5.973A13.751 13.751 0 0 0 14.278 11h2.987a7.342 7.342 0 0 1-4.989 5.973zm-2.26 2.36a9.333 9.333 0 0 0 9.317-9.33V10a9.333 9.333 0 1 0-9.349 9.333H10" clip-rule="evenodd"/></symbol><symbol id="refresh-icon" viewBox="0 0 20 20"><g clip-path="url(#a)"><path fill-rule="evenodd" d="M11.88 1.712a8.5 8.5 0 0 0-7.876 2.27l-2.17 2.04v-2.69a1 1 0 0 0-2 0v4.985a.997.997 0 0 0 1 1.016h5a1 1 0 0 0 0-2H3.358l2.027-1.905a6.5 6.5 0 0 1 10.747 2.405 1 1 0 0 0 1.886-.668 8.5 8.5 0 0 0-6.137-5.454zm8.287 9.975a.997.997 0 0 0-1-1.02h-5a1 1 0 1 0 0 2h2.475l-2.027 1.904a6.5 6.5 0 0 1-10.748-2.405 1 1 0 1 0-1.885.668 8.5 8.5 0 0 0 14.014 3.184l2.17-2.04v2.688a1 1 0 1 0 2 0v-4.979z" clip-rule="evenodd"/></g><defs><clipPath id="a"><path fill="#fff" d="M0 0h20v20H0z"/></clipPath></defs></symbol></svg>